<?xml version="1.0" encoding="UTF-8" standalone="no"?><!-- Generator: Gravit.io --><svg xmlns="http://www.w3.org/2000/svg" xmlns:xlink="http://www.w3.org/1999/xlink" style="isolation:isolate" viewBox="0 0 128 128" width="128pt" height="128pt"><defs><clipPath id="_clipPath_nukG8OWuposFJ0LHfhLxxm3d227u4jqY"><rect width="128" height="128"/></clipPath></defs><g clip-path="url(#_clipPath_nukG8OWuposFJ0LHfhLxxm3d227u4jqY)"><rect x="0" y="0" width="128" height="128" transform="matrix(1,0,0,1,0,0)" fill="rgb(0,0,0)"/><g><path d=" M 115.993 73.802 L 107.129 73.783 L 107.129 82.978 C 107.129 83.997 106.292 84.826 105.264 84.826 C 104.241 84.826 103.404 83.997 103.404 82.978 L 103.404 73.774 L 96.814 73.76 L 96.814 89.523 C 96.814 90.541 95.976 91.371 94.953 91.371 C 93.925 91.371 93.088 90.541 93.088 89.523 L 93.088 73.756 L 86.493 73.742 L 86.493 82.978 C 86.493 83.997 85.661 84.826 84.633 84.826 C 83.605 84.826 82.768 83.997 82.768 82.978 L 82.768 73.733 L 76.178 73.719 L 76.178 82.978 C 76.178 83.997 75.346 84.826 74.318 84.826 C 73.29 84.826 72.457 83.997 72.457 82.978 L 72.457 73.71 L 65.863 73.696 L 65.863 89.523 C 65.863 90.541 65.026 91.371 63.998 91.371 C 62.974 91.371 62.137 90.541 62.137 89.523 L 62.137 73.691 L 55.543 73.677 L 55.543 82.978 C 55.543 83.997 54.705 84.826 53.682 84.826 C 52.654 84.826 51.817 83.997 51.817 82.978 L 51.817 73.668 L 45.227 73.654 L 45.227 82.978 C 45.227 83.997 44.39 84.826 43.367 84.826 C 42.339 84.826 41.502 83.997 41.502 82.978 L 41.502 73.645 L 34.907 73.631 L 34.907 89.518 C 34.907 90.537 34.075 91.366 33.047 91.366 C 32.019 91.366 31.186 90.537 31.186 89.518 L 31.186 73.627 L 24.596 73.613 L 24.596 82.978 C 24.596 83.997 23.759 84.826 22.731 84.826 C 21.708 84.826 20.871 83.997 20.871 82.978 L 20.871 73.604 L 12.225 73.585 L 12.007 106.313 L 115.779 106.373 L 115.993 73.802 Z  M 8.5 73.585 C 8.5 71.705 10.105 70.11 12.007 70.11 L 115.993 70.11 C 117.923 70.11 119.5 71.673 119.5 73.59 L 119.5 106.529 C 119.5 107.456 119.133 108.327 118.472 108.986 C 117.812 109.636 116.928 110 115.993 110 L 12.007 110 C 10.077 110 8.5 108.442 8.5 106.529 L 8.5 73.585 Z " fill="rgb(255,153,0)"/></g><path d=" M 35.26 42.56 L 37 42.56 L 37 55.8 L 35.5 55.8 L 35.5 44.84 L 30.6 51.14 L 25.62 44.84 L 25.62 55.8 L 24.12 55.8 L 24.12 42.56 L 25.86 42.56 L 30.6 48.84 L 35.26 42.56 L 35.26 42.56 Z  M 47.54 55.8 L 47.54 54.2 L 47.54 54.2 Q 46.34 55.96 43.96 55.96 L 43.96 55.96 L 43.96 55.96 Q 41.8 55.96 40.44 54.46 L 40.44 54.46 L 40.44 54.46 Q 39.12 52.98 39.12 50.8 L 39.12 50.8 L 39.12 50.8 Q 39.12 48.62 40.44 47.14 L 40.44 47.14 L 40.44 47.14 Q 41.8 45.64 44.06 45.64 L 44.06 45.64 L 44.06 45.64 Q 46.32 45.64 47.54 47.42 L 47.54 47.42 L 47.54 45.8 L 49.04 45.8 L 49.04 55.8 L 47.54 55.8 L 47.54 55.8 Z  M 44.16 54.6 L 44.16 54.6 L 44.16 54.6 Q 45.78 54.6 46.72 53.48 L 46.72 53.48 L 46.72 53.48 Q 47.62 52.42 47.62 50.8 L 47.62 50.8 L 47.62 50.8 Q 47.62 49.18 46.72 48.12 L 46.72 48.12 L 46.72 48.12 Q 45.78 47 44.16 47 L 44.16 47 L 44.16 47 Q 42.56 47 41.56 48.12 L 41.56 48.12 L 41.56 48.12 Q 40.62 49.18 40.62 50.8 L 40.62 50.8 L 40.62 50.8 Q 40.62 52.42 41.56 53.48 L 41.56 53.48 L 41.56 53.48 Q 42.56 54.6 44.16 54.6 Z  M 51.64 45.8 L 53.14 45.8 L 53.14 47.36 L 53.14 47.36 Q 53.68 46.64 54.46 46.14 L 54.46 46.14 L 54.46 46.14 Q 55.24 45.64 56.24 45.64 L 56.24 45.64 L 56.24 45.64 Q 57.24 45.64 57.96 45.92 L 57.96 45.92 L 57.96 45.92 Q 58.68 46.2 59.22 46.76 L 59.22 46.76 L 59.22 46.76 Q 60.46 47.98 60.46 49.98 L 60.46 49.98 L 60.46 55.8 L 58.96 55.8 L 58.96 50.02 L 58.96 50.02 Q 58.96 48.64 58.18 47.82 L 58.18 47.82 L 58.18 47.82 Q 57.4 47 56.16 47 L 56.16 47 L 56.16 47 Q 54.9 47 54.02 47.84 L 54.02 47.84 L 54.02 47.84 Q 53.14 48.7 53.14 50.04 L 53.14 50.04 L 53.14 55.8 L 51.64 55.8 L 51.64 45.8 L 51.64 45.8 Z  M 70.76 55.8 L 70.76 54.2 L 70.76 54.2 Q 69.56 55.96 67.18 55.96 L 67.18 55.96 L 67.18 55.96 Q 65.02 55.96 63.66 54.46 L 63.66 54.46 L 63.66 54.46 Q 62.34 52.98 62.34 50.8 L 62.34 50.8 L 62.34 50.8 Q 62.34 48.62 63.66 47.14 L 63.66 47.14 L 63.66 47.14 Q 65.02 45.64 67.28 45.64 L 67.28 45.64 L 67.28 45.64 Q 69.54 45.64 70.76 47.42 L 70.76 47.42 L 70.76 45.8 L 72.26 45.8 L 72.26 55.8 L 70.76 55.8 L 70.76 55.8 Z  M 67.38 54.6 L 67.38 54.6 L 67.38 54.6 Q 69 54.6 69.94 53.48 L 69.94 53.48 L 69.94 53.48 Q 70.84 52.42 70.84 50.8 L 70.84 50.8 L 70.84 50.8 Q 70.84 49.18 69.94 48.12 L 69.94 48.12 L 69.94 48.12 Q 69 47 67.38 47 L 67.38 47 L 67.38 47 Q 65.78 47 64.78 48.12 L 64.78 48.12 L 64.78 48.12 Q 63.84 49.18 63.84 50.8 L 63.84 50.8 L 63.84 50.8 Q 63.84 52.42 64.78 53.48 L 64.78 53.48 L 64.78 53.48 Q 65.78 54.6 67.38 54.6 Z  M 82.66 47.4 L 82.66 47.4 L 82.66 45.8 L 84.16 45.8 L 84.16 55.5 L 84.16 55.5 Q 84.16 57.66 82.93 58.79 L 82.93 58.79 L 82.93 58.79 Q 81.7 59.92 79.62 59.92 L 79.62 59.92 L 79.62 59.92 Q 77.54 59.92 76.37 59.12 L 76.37 59.12 L 76.37 59.12 Q 75.2 58.32 74.78 57 L 74.78 57 L 76.44 57 L 76.44 57 Q 77.08 58.56 79.36 58.56 L 79.36 58.56 L 79.36 58.56 Q 81.1 58.56 81.88 57.76 L 81.88 57.76 L 81.88 57.76 Q 82.66 56.96 82.66 55.4 L 82.66 55.4 L 82.66 54.02 L 82.66 54.02 Q 81.44 55.8 79.08 55.8 L 79.08 55.8 L 79.08 55.8 Q 76.92 55.8 75.56 54.32 L 75.56 54.32 L 75.56 54.32 Q 74.24 52.88 74.24 50.72 L 74.24 50.72 L 74.24 50.72 Q 74.24 48.56 75.56 47.12 L 75.56 47.12 L 75.56 47.12 Q 76.92 45.64 79.19 45.64 L 79.19 45.64 L 79.19 45.64 Q 81.46 45.64 82.66 47.4 Z  M 79.28 54.44 L 79.28 54.44 L 79.28 54.44 Q 80.1 54.44 80.74 54.15 L 80.74 54.15 L 80.74 54.15 Q 81.38 53.86 81.84 53.36 L 81.84 53.36 L 81.84 53.36 Q 82.74 52.32 82.74 50.72 L 82.74 50.72 L 82.74 50.72 Q 82.74 49.12 81.84 48.08 L 81.84 48.08 L 81.84 48.08 Q 80.86 47 79.28 47 L 79.28 47 L 79.28 47 Q 77.66 47 76.68 48.08 L 76.68 48.08 L 76.68 48.08 Q 75.74 49.14 75.74 50.72 L 75.74 50.72 L 75.74 50.72 Q 75.74 52.3 76.68 53.36 L 76.68 53.36 L 76.68 53.36 Q 77.66 54.44 79.28 54.44 Z  M 91.22 54.6 L 91.22 54.6 L 91.22 54.6 Q 93.24 54.6 94.12 52.92 L 94.12 52.92 L 95.76 52.92 L 95.76 52.92 Q 95.24 54.28 94.11 55.12 L 94.11 55.12 L 94.11 55.12 Q 92.98 55.96 91.2 55.96 L 91.2 55.96 L 91.2 55.96 Q 88.94 55.96 87.52 54.46 L 87.52 54.46 L 87.52 54.46 Q 86.14 53 86.14 50.8 L 86.14 50.8 L 86.14 50.8 Q 86.14 48.58 87.46 47.14 L 87.46 47.14 L 87.46 47.14 Q 88.86 45.64 91.1 45.64 L 91.1 45.64 L 91.1 45.64 Q 93.34 45.64 94.74 47.14 L 94.74 47.14 L 94.74 47.14 Q 96.06 48.58 96.06 50.8 L 96.06 50.8 L 96.06 51.4 L 87.68 51.4 L 87.68 51.4 Q 87.84 52.78 88.78 53.68 L 88.78 53.68 L 88.78 53.68 Q 89.74 54.6 91.22 54.6 Z  M 91.1 47 L 91.1 47 L 91.1 47 Q 89.72 47 88.78 47.86 L 88.78 47.86 L 88.78 47.86 Q 87.9 48.68 87.7 50 L 87.7 50 L 94.5 50 L 94.5 50 Q 94.3 48.68 93.42 47.86 L 93.42 47.86 L 93.42 47.86 Q 92.48 47 91.1 47 Z  M 103.08 45.64 L 103.18 45.64 L 103.18 47.14 L 103 47.14 L 103 47.14 Q 101.38 47.14 100.36 48.44 L 100.36 48.44 L 100.36 48.44 Q 99.4 49.68 99.4 51.4 L 99.4 51.4 L 99.4 55.8 L 97.9 55.8 L 97.9 45.8 L 99.4 45.8 L 99.4 48.26 L 99.4 48.26 Q 99.88 46.7 101.48 45.96 L 101.48 45.96 L 101.48 45.96 Q 102.14 45.64 103.08 45.64 L 103.08 45.64 L 103.08 45.64 Z  M 78.5 27.698 L 78.5 27.698 L 78.5 27.698 Q 78.12 28.028 77.99 28.428 L 77.99 28.428 L 77.99 28.428 Q 77.86 28.828 77.86 29.278 L 77.86 29.278 L 77.86 29.278 Q 77.86 29.728 78.25 30.108 L 78.25 30.108 L 78.25 30.108 Q 78.64 30.488 79.28 30.748 L 79.28 30.748 L 79.28 30.748 Q 79.92 31.008 80.74 31.208 L 80.74 31.208 L 80.74 31.208 Q 81.56 31.408 82.41 31.618 L 82.41 31.618 L 82.41 31.618 Q 83.26 31.828 84.08 32.098 L 84.08 32.098 L 84.08 32.098 Q 84.9 32.368 85.54 32.788 L 85.54 32.788 L 85.54 32.788 Q 86.96 33.688 86.96 35.248 L 86.96 35.248 L 86.96 35.248 Q 86.96 37.108 85.57 38.088 L 85.57 38.088 L 85.57 38.088 Q 84.18 39.068 81.72 39.068 L 81.72 39.068 L 81.72 39.068 Q 78.94 39.068 77.48 37.908 L 77.48 37.908 L 77.48 37.908 Q 76.18 36.868 76 34.948 L 76 34.948 L 77.56 34.948 L 77.56 34.948 Q 77.64 36.308 78.88 37.028 L 78.88 37.028 L 78.88 37.028 Q 79.96 37.648 81.74 37.648 L 81.74 37.648 L 81.74 37.648 Q 85.46 37.648 85.46 35.308 L 85.46 35.308 L 85.46 35.308 Q 85.46 34.508 84.79 34.048 L 84.79 34.048 L 84.79 34.048 Q 84.12 33.588 83.11 33.288 L 83.11 33.288 L 83.11 33.288 Q 82.1 32.988 80.93 32.728 L 80.93 32.728 L 80.93 32.728 Q 79.76 32.468 78.75 32.058 L 78.75 32.058 L 78.75 32.058 Q 77.74 31.648 77.07 30.978 L 77.07 30.978 L 77.07 30.978 Q 76.4 30.308 76.4 29.168 L 76.4 29.168 L 76.4 29.168 Q 76.4 27.548 77.64 26.528 L 77.64 26.528 L 77.64 26.528 Q 78.88 25.508 81.38 25.508 L 81.38 25.508 L 81.38 25.508 Q 83.9 25.508 85.28 26.668 L 85.28 26.668 L 85.28 26.668 Q 86.54 27.688 86.62 29.288 L 86.62 29.288 L 85.08 29.288 L 85.08 29.288 Q 84.88 27.648 82.96 27.108 L 82.96 27.108 L 82.96 27.108 Q 82.28 26.908 81.27 26.908 L 81.27 26.908 L 81.27 26.908 Q 80.26 26.908 79.57 27.138 L 79.57 27.138 L 79.57 27.138 Q 78.88 27.368 78.5 27.698 Z  M 88.96 38.908 L 88.96 28.908 L 90.46 28.908 L 90.46 38.908 L 88.96 38.908 L 88.96 38.908 Z  M 88.9 25.268 L 90.52 25.268 L 90.52 27.228 L 88.9 27.228 L 88.9 25.268 L 88.9 25.268 Z  M 100.26 30.308 L 94.26 37.508 L 100.26 37.508 L 100.26 38.908 L 92.38 38.908 L 92.38 37.488 L 98.36 30.288 L 92.46 30.288 L 92.46 28.908 L 100.26 28.908 L 100.26 30.308 L 100.26 30.308 Z  M 106.56 37.708 L 106.56 37.708 L 106.56 37.708 Q 108.58 37.708 109.46 36.028 L 109.46 36.028 L 111.1 36.028 L 111.1 36.028 Q 110.58 37.388 109.45 38.228 L 109.45 38.228 L 109.45 38.228 Q 108.32 39.068 106.54 39.068 L 106.54 39.068 L 106.54 39.068 Q 104.28 39.068 102.86 37.568 L 102.86 37.568 L 102.86 37.568 Q 101.48 36.108 101.48 33.908 L 101.48 33.908 L 101.48 33.908 Q 101.48 31.688 102.8 30.248 L 102.8 30.248 L 102.8 30.248 Q 104.2 28.748 106.44 28.748 L 106.44 28.748 L 106.44 28.748 Q 108.68 28.748 110.08 30.248 L 110.08 30.248 L 110.08 30.248 Q 111.4 31.688 111.4 33.908 L 111.4 33.908 L 111.4 34.508 L 103.02 34.508 L 103.02 34.508 Q 103.18 35.888 104.12 36.788 L 104.12 36.788 L 104.12 36.788 Q 105.08 37.708 106.56 37.708 Z  M 106.44 30.108 L 106.44 30.108 L 106.44 30.108 Q 105.06 30.108 104.12 30.968 L 104.12 30.968 L 104.12 30.968 Q 103.24 31.788 103.04 33.108 L 103.04 33.108 L 109.84 33.108 L 109.84 33.108 Q 109.64 31.788 108.76 30.968 L 108.76 30.968 L 108.76 30.968 Q 107.82 30.108 106.44 30.108 Z  M 17.18 25.668 L 17.18 38.908 L 15.68 38.908 L 15.68 25.668 L 17.18 25.668 L 17.18 25.668 Z  M 21.6 28.908 L 21.6 30.428 L 21.6 30.428 Q 22.6 28.748 24.64 28.748 L 24.64 28.748 L 24.64 28.748 Q 25.64 28.748 26.49 29.278 L 26.49 29.278 L 26.49 29.278 Q 27.34 29.808 27.82 30.768 L 27.82 30.768 L 27.82 30.768 Q 28.5 29.508 29.94 28.968 L 29.94 28.968 L 29.94 28.968 Q 30.52 28.748 31.25 28.748 L 31.25 28.748 L 31.25 28.748 Q 31.98 28.748 32.65 29.038 L 32.65 29.038 L 32.65 29.038 Q 33.32 29.328 33.84 29.868 L 33.84 29.868 L 33.84 29.868 Q 34.96 31.068 34.96 32.868 L 34.96 32.868 L 34.96 38.908 L 33.46 38.908 L 33.46 32.908 L 33.46 32.908 Q 33.46 31.668 32.76 30.868 L 32.76 30.868 L 32.76 30.868 Q 32.06 30.108 30.98 30.108 L 30.98 30.108 L 30.98 30.108 Q 29.84 30.108 29.08 30.848 L 29.08 30.848 L 29.08 30.848 Q 28.28 31.608 28.28 32.928 L 28.28 32.928 L 28.28 38.908 L 26.78 38.908 L 26.78 32.908 L 26.78 32.908 Q 26.78 31.668 26.08 30.868 L 26.08 30.868 L 26.08 30.868 Q 25.38 30.108 24.3 30.108 L 24.3 30.108 L 24.3 30.108 Q 23.16 30.108 22.4 30.848 L 22.4 30.848 L 22.4 30.848 Q 21.6 31.608 21.6 32.928 L 21.6 32.928 L 21.6 38.908 L 20.1 38.908 L 20.1 28.908 L 21.6 28.908 L 21.6 28.908 Z  M 45.26 38.908 L 45.26 37.308 L 45.26 37.308 Q 44.06 39.068 41.68 39.068 L 41.68 39.068 L 41.68 39.068 Q 39.52 39.068 38.16 37.568 L 38.16 37.568 L 38.16 37.568 Q 36.84 36.088 36.84 33.908 L 36.84 33.908 L 36.84 33.908 Q 36.84 31.728 38.16 30.248 L 38.16 30.248 L 38.16 30.248 Q 39.52 28.748 41.78 28.748 L 41.78 28.748 L 41.78 28.748 Q 44.04 28.748 45.26 30.528 L 45.26 30.528 L 45.26 28.908 L 46.76 28.908 L 46.76 38.908 L 45.26 38.908 L 45.26 38.908 Z  M 41.88 37.708 L 41.88 37.708 L 41.88 37.708 Q 43.5 37.708 44.44 36.588 L 44.44 36.588 L 44.44 36.588 Q 45.34 35.528 45.34 33.908 L 45.34 33.908 L 45.34 33.908 Q 45.34 32.288 44.44 31.228 L 44.44 31.228 L 44.44 31.228 Q 43.5 30.108 41.88 30.108 L 41.88 30.108 L 41.88 30.108 Q 40.28 30.108 39.28 31.228 L 39.28 31.228 L 39.28 31.228 Q 38.34 32.288 38.34 33.908 L 38.34 33.908 L 38.34 33.908 Q 38.34 35.528 39.28 36.588 L 39.28 36.588 L 39.28 36.588 Q 40.28 37.708 41.88 37.708 Z  M 57.16 30.508 L 57.16 30.508 L 57.16 28.908 L 58.66 28.908 L 58.66 38.608 L 58.66 38.608 Q 58.66 40.768 57.43 41.898 L 57.43 41.898 L 57.43 41.898 Q 56.2 43.028 54.12 43.028 L 54.12 43.028 L 54.12 43.028 Q 52.04 43.028 50.87 42.228 L 50.87 42.228 L 50.87 42.228 Q 49.7 41.428 49.28 40.108 L 49.28 40.108 L 50.94 40.108 L 50.94 40.108 Q 51.58 41.668 53.86 41.668 L 53.86 41.668 L 53.86 41.668 Q 55.6 41.668 56.38 40.868 L 56.38 40.868 L 56.38 40.868 Q 57.16 40.068 57.16 38.508 L 57.16 38.508 L 57.16 37.128 L 57.16 37.128 Q 55.94 38.908 53.58 38.908 L 53.58 38.908 L 53.58 38.908 Q 51.42 38.908 50.06 37.428 L 50.06 37.428 L 50.06 37.428 Q 48.74 35.988 48.74 33.828 L 48.74 33.828 L 48.74 33.828 Q 48.74 31.668 50.06 30.228 L 50.06 30.228 L 50.06 30.228 Q 51.42 28.748 53.69 28.748 L 53.69 28.748 L 53.69 28.748 Q 55.96 28.748 57.16 30.508 Z  M 53.78 37.548 L 53.78 37.548 L 53.78 37.548 Q 54.6 37.548 55.24 37.258 L 55.24 37.258 L 55.24 37.258 Q 55.88 36.968 56.34 36.468 L 56.34 36.468 L 56.34 36.468 Q 57.24 35.428 57.24 33.828 L 57.24 33.828 L 57.24 33.828 Q 57.24 32.228 56.34 31.188 L 56.34 31.188 L 56.34 31.188 Q 55.36 30.108 53.78 30.108 L 53.78 30.108 L 53.78 30.108 Q 52.16 30.108 51.18 31.188 L 51.18 31.188 L 51.18 31.188 Q 50.24 32.248 50.24 33.828 L 50.24 33.828 L 50.24 33.828 Q 50.24 35.408 51.18 36.468 L 51.18 36.468 L 51.18 36.468 Q 52.16 37.548 53.78 37.548 Z  M 65.72 37.708 L 65.72 37.708 L 65.72 37.708 Q 67.74 37.708 68.62 36.028 L 68.62 36.028 L 70.26 36.028 L 70.26 36.028 Q 69.74 37.388 68.61 38.228 L 68.61 38.228 L 68.61 38.228 Q 67.48 39.068 65.7 39.068 L 65.7 39.068 L 65.7 39.068 Q 63.44 39.068 62.02 37.568 L 62.02 37.568 L 62.02 37.568 Q 60.64 36.108 60.64 33.908 L 60.64 33.908 L 60.64 33.908 Q 60.64 31.688 61.96 30.248 L 61.96 30.248 L 61.96 30.248 Q 63.36 28.748 65.6 28.748 L 65.6 28.748 L 65.6 28.748 Q 67.84 28.748 69.24 30.248 L 69.24 30.248 L 69.24 30.248 Q 70.56 31.688 70.56 33.908 L 70.56 33.908 L 70.56 34.508 L 62.18 34.508 L 62.18 34.508 Q 62.34 35.888 63.28 36.788 L 63.28 36.788 L 63.28 36.788 Q 64.24 37.708 65.72 37.708 Z  M 65.6 30.108 L 65.6 30.108 L 65.6 30.108 Q 64.22 30.108 63.28 30.968 L 63.28 30.968 L 63.28 30.968 Q 62.4 31.788 62.2 33.108 L 62.2 33.108 L 69 33.108 L 69 33.108 Q 68.8 31.788 67.92 30.968 L 67.92 30.968 L 67.92 30.968 Q 66.98 30.108 65.6 30.108 Z " fill="rgb(255,255,255)"/></g></svg>